<svg data-v-fde0c5aa="" xmlns="http://www.w3.org/2000/svg" viewBox="0 0 300 300" class="iconLeft"><!----><defs data-v-fde0c5aa=""><!----></defs><rect data-v-fde0c5aa="" fill="transparent" x="0" y="0" width="300px" height="300px" class="logo-background-square"></rect><defs data-v-fde0c5aa=""><!----></defs><g data-v-fde0c5aa="" id="3209600f-7545-4cc9-a35a-79641e7130cc" fill="#00000" transform="matrix(1.7518164502391989,0,0,1.7518164502391989,86.81541980476645,132.06140036817516)"><path d="M8.12 6.07L8.12 4.36L0.38 4.36L0.38 6.07L3.31 6.07L3.31 13.48L5.20 13.48L5.20 6.07ZM13.23 6.48C12.41 6.48 11.77 7.10 11.29 7.92L11.29 6.62L9.56 6.62L9.56 13.52L11.29 13.52L11.29 9.67C11.70 8.90 12.20 8.31 12.99 8.31C13.40 8.31 13.74 8.44 14.05 8.65L14.05 6.67C13.81 6.55 13.55 6.48 13.23 6.48ZM21.67 9.87C21.67 7.86 20.45 6.44 18.42 6.44C16.39 6.44 14.92 8.13 14.92 10.14C14.92 12.22 16.58 13.73 18.62 13.73C19.67 13.73 20.41 13.38 20.79 13.10L20.79 11.53C20.37 11.80 19.70 12.15 18.69 12.15C17.64 12.15 16.86 11.54 16.67 10.60L21.67 10.60ZM16.69 9.46C16.90 8.54 17.50 7.96 18.38 7.96C19.17 7.96 19.93 8.46 20.00 9.46ZM27.08 6.44C26.15 6.44 25.42 7.04 24.99 7.60L24.99 6.62L23.26 6.62L23.26 13.52L24.99 13.52L24.99 9.15C25.39 8.60 25.94 8.13 26.55 8.13C27.33 8.13 27.81 8.59 27.81 9.52L27.82 13.52L29.56 13.52L29.56 9.28C29.56 7.40 28.49 6.44 27.08 6.44ZM38.12 13.52L38.12 3.68L36.38 3.68L36.38 7.40C35.86 6.82 35.04 6.44 34.29 6.44C32.51 6.44 31.08 7.81 31.08 10.12C31.08 12.41 32.51 13.73 34.17 13.73C35.19 13.73 35.97 13.10 36.38 12.36L36.38 13.52ZM34.64 8.15C35.31 8.15 35.89 8.48 36.38 9.00L36.38 9.98C36.39 11.22 35.52 11.99 34.60 11.99C33.56 11.99 32.88 11.16 32.88 10.12C32.88 9.08 33.56 8.15 34.64 8.15ZM47.21 6.62L45.23 6.62L43.31 11.02L41.34 6.62L39.32 6.62L42.30 13.02L40.22 16.80L42.19 16.80ZM61.89 13.52L61.89 4.29L61.06 4.29L57.37 8.24L53.65 4.29L52.81 4.29L52.81 13.52L54.71 13.52L54.71 7.78L57.09 10.38L57.65 10.38L59.99 7.78L59.99 13.52ZM67.06 6.44C65.28 6.44 63.85 7.81 63.85 10.12C63.85 12.41 65.28 13.73 66.94 13.73C67.96 13.73 68.74 13.10 69.15 12.36L69.15 13.52L70.89 13.52L70.89 6.62L69.15 6.62L69.15 7.40C68.63 6.82 67.81 6.44 67.06 6.44ZM67.42 8.13C68.09 8.13 68.66 8.48 69.15 9.00L69.15 9.98C69.17 11.22 68.29 11.99 67.38 11.99C66.34 11.99 65.65 11.16 65.65 10.12C65.65 9.08 66.34 8.13 67.42 8.13ZM76.70 6.48C75.88 6.48 75.24 7.10 74.76 7.92L74.76 6.62L73.02 6.62L73.02 13.52L74.76 13.52L74.76 9.67C75.17 8.90 75.66 8.31 76.45 8.31C76.86 8.31 77.21 8.44 77.52 8.65L77.52 6.67C77.27 6.55 77.01 6.48 76.70 6.48ZM81.50 10.73L83.60 13.52L85.86 13.52L82.62 9.60L85.59 6.62L83.41 6.62L80.60 9.69L80.60 3.68L78.86 3.68L78.86 13.52L80.60 13.52L80.60 11.63ZM92.79 9.87C92.79 7.86 91.57 6.44 89.54 6.44C87.51 6.44 86.04 8.13 86.04 10.14C86.04 12.22 87.71 13.73 89.74 13.73C90.79 13.73 91.53 13.38 91.92 13.10L91.92 11.53C91.49 11.80 90.82 12.15 89.81 12.15C88.76 12.15 87.98 11.54 87.79 10.60L92.79 10.60ZM87.81 9.46C88.02 8.54 88.62 7.96 89.50 7.96C90.29 7.96 91.05 8.46 91.12 9.46ZM96.88 6.62L96.88 4.61L95.99 4.61C95.55 6.02 94.79 6.86 93.90 7.18L93.90 8.07L95.14 8.07L95.14 11.50C95.14 12.88 96.00 13.73 97.23 13.73C98.03 13.73 98.52 13.45 98.86 13.11L98.86 11.73C98.55 11.92 98.22 12.04 97.73 12.04C97.17 12.04 96.88 11.66 96.88 11.05L96.88 8.07L98.79 8.07L98.79 6.62Z"></path></g><defs data-v-fde0c5aa=""><!----></defs><g data-v-fde0c5aa="" id="84b7633f-af5b-4789-917f-e2c092b4b165" stroke="none" fill="#8A33FD" transform="matrix(0.4536922586646063,0,0,0.4536922586646063,156.5989104768038,67.87926781944856)"><path d="M-216.3 143.1c-22.2-1.5-40.7 16.1-40.7 37.9 0 1.6.1 3.1.3 4.6.1.8 1.1 1.2 1.7.6l3.7-3.7c.2-.2.3-.5.3-.8v-.7c0-18.4 15.6-33.2 34.3-31.9 15.8 1.1 28.5 13.9 29.6 29.6 1.3 18.7-13.5 34.3-31.9 34.3-12.4 0-23.1-7.1-28.4-17.4l12.2-12.2 13.2 13.2c.4.4 1 .4 1.4 0l18.8-18.8v5.7c0 .6.4 1 1 1h4c.6 0 1-.4 1-1v-14.9c0-.6-.4-1-1-1h-14.9c-.6 0-1 .4-1 1v4c0 .6.4 1 1 1h5.7l-15.2 15.2-13.2-13.2c-.4-.4-1-.4-1.4 0l-18.2 18.2c-.3.3-.4.7-.2 1.1C-248.8 209-235 219-219 219c21.9 0 39.5-18.5 37.9-40.7-1.3-18.7-16.5-33.9-35.2-35.2z"></path></g><!----></svg>